<svg width="431" height="417" viewBox="0 0 431 417" fill="none" xmlns="http://www.w3.org/2000/svg">
<g clip-path="url(#clip0_9_21204)">
<path d="M233.518 398.068L232.945 367.648L248.875 363.773C248.875 363.773 275.437 340.268 275.926 366.264C276.416 392.259 285.243 436.1 275.245 436.289C265.247 436.477 258.645 404.596 258.645 404.596L233.518 398.068Z" fill="#2F2E41"/>
<path d="M143.212 58.981L149.419 81.9452L121.489 96.2203L110.938 65.8082L143.212 58.981Z" fill="#FFB6B6"/>
<path d="M124.956 5.87451C143.013 5.87451 157.652 20.5131 157.652 38.5707C157.652 56.6283 143.013 71.2669 124.956 71.2669C106.898 71.2669 92.2595 56.6283 92.2595 38.5707C92.2595 20.5131 106.898 5.87451 124.956 5.87451Z" fill="#FFB6B6"/>
<path d="M162.402 205.065C164.269 201.883 166.871 199.195 169.99 197.225L187.836 163.049L203.849 172.016L184.023 205.718C183.723 209.393 182.548 212.944 180.596 216.072C175.816 223.97 167.871 227.904 162.847 224.864C157.822 221.823 157.623 212.959 162.402 205.065Z" fill="#FFB6B6"/>
<path d="M103.293 204.426L151.158 204.111C151.158 204.111 172.926 244.111 148.926 285.111L144.926 369.111L244.926 364.111V400.399C244.926 400.399 114.926 418.111 109.926 408.111C104.926 398.111 94.9261 335.683 94.9261 335.683L84.8276 353.452L74.9261 482.111H44.0087L37.2056 343.111L96.926 232.111L103.293 204.426Z" fill="#2F2E41"/>
<path d="M114.684 77.7625L151.317 75.3203L164.749 116.837L151.317 204.756L101.252 213.304L90.2625 121.722L114.684 77.7625Z" fill="white"/>
<path d="M152.389 81.4258L148.875 121.722L181.845 141.259L169.293 186.426L194.055 199.872C194.055 199.872 219.698 152.249 214.814 136.375C209.93 120.501 152.389 81.4258 152.389 81.4258Z" fill="white"/>
<path opacity="0.1" d="M143.327 117.213C143.327 117.213 143.719 188.646 127.506 190.536C111.293 192.426 100.015 187.891 100.015 187.891" fill="black"/>
<path d="M37.1102 150.778C40.788 151.064 44.3436 152.228 47.4795 154.17L86.0189 155.265L84.9619 173.587L45.9821 170.504C42.5461 171.843 38.8393 172.34 35.1719 171.953C25.9794 171.11 18.9652 165.687 19.5012 159.839C20.0372 153.991 27.9211 149.934 37.1102 150.778Z" fill="#FFB6B6"/>
<path d="M57.1113 173.474L56.7041 173.315L61.8994 151.928L95.9248 151.751L102.285 99.0527C103.531 88.7187 112.321 80.9258 122.73 80.9258C128.577 80.9258 134.168 83.4219 138.07 87.7734C141.968 92.1201 143.84 97.9424 143.205 103.746C139.317 139.311 132.083 182.398 119.697 185.702C117.342 186.33 114.584 186.604 111.561 186.604C91.1436 186.604 58.6807 174.084 57.1113 173.474Z" fill="white"/>
<path d="M105.962 21.6029C103.616 25.6584 101.178 29.8212 97.4683 32.6822C93.7583 35.5432 88.4181 36.815 84.3327 34.5216C80.3179 32.268 78.5898 27.0347 79.5788 22.5381C80.5678 18.0416 83.8209 14.3046 87.6496 11.7476C91.4783 9.19061 95.8822 7.65646 100.232 6.14863C106.88 3.84424 113.578 1.52752 120.543 0.527247C139.542 -2.20131 159.723 5.82208 171.661 20.8505C177.298 27.9463 181.094 36.2952 184.833 44.5502C187.89 51.2981 191.014 58.4052 190.474 65.7933C190.077 71.2098 187.824 77.1432 190.741 81.7248C192.21 84.0332 194.716 85.4319 196.749 87.263C198.782 89.0941 200.451 91.9328 199.447 94.4783C198.419 97.0831 195.182 98.0224 193.455 100.226C190.494 104.003 193.017 109.529 196.001 113.288C198.985 117.047 202.648 121.262 201.704 125.967C201.023 129.362 197.94 131.89 194.606 132.823C191.272 133.756 187.717 133.361 184.312 132.732C167.672 129.659 152.116 120.992 140.746 108.461C129.376 95.9297 122.258 79.6071 120.811 62.748C120.175 55.3247 120.598 47.7864 119.136 40.4807C117.674 33.1751 113.886 25.8207 107.222 22.4876" fill="#2F2E41"/>
</g>
<defs>
<clipPath id="clip0_9_21204">
<rect width="692.68" height="520.455" fill="white" transform="translate(-262)"/>
</clipPath>
</defs>
</svg>
