<svg width="227" height="426" viewBox="0 0 227 426" fill="none" xmlns="http://www.w3.org/2000/svg">
<g clip-path="url(#clip0_9_17305)">
<path d="M161.617 41.4252L177.263 56.1747L170.084 66.288L154.098 50.1053C153.404 50.0583 152.706 49.9112 152.023 49.6513C148.308 48.2377 146.443 44.0802 147.856 40.3652C149.27 36.6502 153.427 34.7845 157.142 36.198C159.512 37.0995 161.123 39.1182 161.617 41.4252Z" fill="#FFB6B6"/>
<path d="M110.333 412.494L121.62 412.493L126.989 368.957L110.331 368.958L110.333 412.494Z" fill="#FFB6B6"/>
<path d="M109.936 424.268L144.645 424.267V423.828C144.644 416.367 138.596 410.319 131.135 410.319L124.794 405.509L112.965 410.319L109.935 410.319L109.936 424.268Z" fill="#2F2E41"/>
<path d="M136.641 400.575L147.22 404.509L167.431 365.576L151.817 359.77L136.641 400.575Z" fill="#FFB6B6"/>
<path d="M132.164 411.472L164.696 423.572L164.849 423.16C167.449 416.167 163.889 408.39 156.896 405.789L152.63 399.07L139.866 399.455L137.026 398.398L132.164 411.472Z" fill="#2F2E41"/>
<path d="M158.018 187.134L180.925 317.416L159.45 398.306L139.406 390.432L142.27 383.989L137.975 375.399L144.417 332.449L144.427 305L126.521 250.128L121.51 340.323L129.385 385.421L127.902 398.306L104.33 401.169L107.194 391.863L92.161 346.766L95.0244 338.176L74.981 232.948L79.9918 199.303L158.018 187.134Z" fill="#2F2E41"/>
<path d="M90.3712 58.6421H118.909L127.595 72.9588L136.901 70.8113L141.616 72.9588L162.671 77.2538L156.228 115.193L154.797 158.859L155.512 177.471C163.039 182.97 161.096 190.548 159.427 199C159.427 199 87.5079 218.668 76.0545 212.386V204.27L82.855 149.911L57.8007 88.3493C56.7014 79.9214 65.6053 77.6445 73.907 75.8222L82.497 72.9588L90.3712 58.6421Z" fill="white"/>
<path d="M156.228 82.2646L162.671 77.2537L177.329 82.2646L171.977 73.6746V69.5345L163.387 67.232L162.671 60.7895L156.228 55.7364L166.778 43.5615L174.482 50.0548L179.135 50.052L185.538 56.455L208.494 87.7977C213.374 94.4613 211.97 104.005 205.109 108.605C202.471 110.373 199.301 111.614 195.599 111.614H155.008L156.228 82.2646Z" fill="white"/>
<path d="M107.34 54.1637C119.185 54.1637 128.787 44.5615 128.787 32.7166C128.787 20.8717 119.185 11.2695 107.34 11.2695C95.4953 11.2695 85.8931 20.8717 85.8931 32.7166C85.8931 44.5615 95.4953 54.1637 107.34 54.1637Z" fill="#FFB6B6"/>
<path d="M66.1141 224.57L65.6052 203.074L77.8444 201.07L77.5738 223.816C78.0276 224.342 78.4136 224.942 78.709 225.611C80.3153 229.246 78.67 233.496 75.0342 235.102C71.3984 236.709 67.1488 235.063 65.5425 231.428C64.5181 229.109 64.8207 226.543 66.1141 224.57Z" fill="#FFB6B6"/>
<path d="M65.7527 81.4799C60.9243 81.203 57.0204 85.3602 57.5999 90.1617L45.8869 155.426L44.0242 159.348L46.1604 161.554L46.6096 166.611L64.4434 213.711L86.7292 214.536L78.4269 116L72.6557 86.7219C71.635 83.7333 68.9057 81.6607 65.7527 81.4799Z" fill="white"/>
<path d="M88.3675 213.894C88.5817 229.369 81.9249 232.676 71.1874 229.437C62.1032 226.698 54.0073 223.382 54.0073 213.894C54.0073 204.405 59.5295 190.373 71.1874 195.077C81.6182 189.351 93.6001 202.922 88.3675 213.894Z" fill="#FF6584"/>
<path d="M70.5688 195.463C69.1979 192.968 69.1038 189.919 70.3773 187.364C71.5118 185.089 73.7583 183.394 76.2345 182.861C77.5821 182.571 78.158 184.641 76.8054 184.932C74.8817 185.346 73.7557 193.26 72.8332 195.009C71.8407 196.89 71.4084 192.532 72.4231 194.379C73.089 195.591 71.2352 196.676 70.5688 195.463Z" fill="#3F3D56"/>
<path d="M174.268 27.0603C174.268 36.5486 167.825 45.8423 157.088 42.6041C148.004 39.8646 136.427 41.0002 145.427 25.0002C133.427 19.0002 145.43 3.53992 157.088 8.24398C167.519 2.51729 174.268 17.572 174.268 27.0603Z" fill="#FF6584"/>
<path d="M156.469 8.62938C152.291 9.60707 154.439 10.0279 156.278 4.53095C157.085 2.11945 159.659 0.5608 162.135 0.0277899C163.483 -0.26228 164.058 1.80745 162.706 2.09859C160.782 2.51267 159.129 3.72049 158.207 5.46895C157.214 7.34995 157.309 5.69851 158.324 7.54549C158.989 8.75747 157.136 9.84227 156.469 8.62938Z" fill="#3F3D56"/>
<path d="M54.2589 408.257C52.193 408.386 51.0512 405.82 52.6142 404.324L52.7697 403.705C52.7492 403.656 52.7286 403.606 52.7079 403.557C50.6187 398.575 43.538 398.61 41.4665 403.599C39.6279 408.027 37.2871 412.463 36.7107 417.145C36.4524 419.212 36.5686 421.317 37.0272 423.345C32.7191 413.935 30.4521 403.659 30.4521 393.324C30.4521 390.728 30.5942 388.131 30.8848 385.542C31.1238 383.423 31.4532 381.317 31.8795 379.231C34.1853 367.954 39.178 357.213 46.3796 348.242C49.8416 346.349 52.7287 343.391 54.4726 339.845C55.0991 338.566 55.59 337.19 55.8225 335.789C55.4285 335.841 54.3369 329.84 54.6341 329.472C54.085 328.639 53.1023 328.225 52.5027 327.412C49.5203 323.368 45.4115 324.074 43.2664 329.569C38.6842 331.882 38.6399 335.717 41.4515 339.406C43.2403 341.753 43.4861 344.928 45.0556 347.441C44.8941 347.647 44.7261 347.848 44.5647 348.054C41.6036 351.852 39.0426 355.934 36.8836 360.223C37.4938 355.457 36.593 349.715 35.0572 346.013C33.309 341.796 30.0323 338.244 27.1468 334.598C23.6808 330.219 16.5734 332.13 15.9628 337.682C15.9569 337.735 15.9511 337.789 15.9455 337.843C16.3741 338.085 16.7939 338.341 17.2041 338.613C19.5436 340.16 18.7351 343.787 15.963 344.214L15.9003 344.224C16.0553 345.768 16.3201 347.299 16.7076 348.803C13.0058 363.119 20.9977 368.333 32.4091 368.568C32.661 368.697 32.9064 368.826 33.1584 368.949C32.0022 372.204 31.0785 375.543 30.3939 378.928C29.7804 381.918 29.354 384.941 29.1151 387.977C28.8179 391.807 28.8438 395.656 29.1668 399.48L29.1474 399.344C28.3271 395.133 26.0407 391.2 22.7208 388.474C17.7752 384.411 10.788 382.915 5.45252 379.65C2.88419 378.078 -0.406926 380.109 0.0413144 383.087L0.0631344 383.229C0.857564 383.552 1.6326 383.927 2.38184 384.347C2.81044 384.588 3.23032 384.845 3.64048 385.117C5.97997 386.664 5.17144 390.29 2.39941 390.718L2.33659 390.728C2.29139 390.734 2.25262 390.741 2.20748 390.747C3.5703 393.983 5.46916 396.987 7.84602 399.577C10.1607 412.074 20.1021 413.259 30.7362 409.62H30.7427C31.9053 414.684 33.604 419.631 35.7871 424.346H53.8073C53.8719 424.146 53.9301 423.939 53.9882 423.739C52.3218 423.843 50.6425 423.746 49.0019 423.442C50.3389 421.802 51.6759 420.148 53.0129 418.508C53.0452 418.475 53.071 418.443 53.0969 418.411C53.775 417.571 54.4597 416.738 55.1378 415.898L55.1382 415.897C55.1807 413.32 54.8711 410.75 54.2589 408.257Z" fill="#F2F2F2"/>
<path d="M255.81 424.4C255.81 425.06 255.28 425.59 254.62 425.59H1.33014C0.670167 425.59 0.140137 425.06 0.140137 424.4C0.140137 423.74 0.670167 423.21 1.33014 423.21H254.62C255.28 423.21 255.81 423.74 255.81 424.4Z" fill="#CCCCCC"/>
<path d="M125.253 15.5249C126.553 16.1649 127.773 16.9649 128.873 17.8849C129.193 18.1549 126.163 18.515 126.463 18.795C124.313 22.255 133.273 26.5849 129.463 26.795C128.703 25.1749 116.973 21.3849 115.703 20.1349C115.883 21.5749 120.633 23.365 120.463 24.795C116.193 24.5249 106.673 22.9249 101.463 20.795C104.602 27.0501 104.626 31.9665 97.4634 33.7949C92.1027 33.7949 88.3601 39.1057 90.1631 44.1541L91.4634 47.7949L86.4634 42.7949C84.384 40.7155 80.3567 35.7961 79.0312 30.5439C78.0792 26.7719 78.8547 22.8195 80.8361 19.4716C80.9093 19.3479 80.9756 19.2285 81.0334 19.115C79.9034 19.6349 78.7234 20.0349 77.5134 20.305C77.4634 18.1249 85.9234 14.085 86.4634 12.7949C88.9734 6.78493 85.3134 6.79494 95.4634 6.79494C96.3384 6.21161 98.0962 7.20813 100.463 6.79494C104.82 6.03454 106.621 3.06163 112.03 4.19835C116.697 5.17931 121.239 6.61816 124.762 8.08597L126.463 8.79494C127.493 10.4449 127.913 11.9849 127.853 13.3849C127.763 13.3649 127.663 13.3449 127.573 13.3349C125.803 13.0849 126.993 15.1449 125.253 15.5249Z" fill="#2F2E41"/>
</g>
<defs>
<clipPath id="clip0_9_17305">
<rect width="610.927" height="425.59" fill="white"/>
</clipPath>
</defs>
</svg>
